<svg width="58" height="58" viewBox="0 0 58 58" fill="none" xmlns="http://www.w3.org/2000/svg">
<g filter="url(#filter0_d_1_10)">
<mask id="path-1-inside-1_1_10" fill="white">
<path d="M4 10C4 4.47715 8.47715 0 14 0H44C49.5228 0 54 4.47715 54 10V40C54 45.5228 49.5228 50 44 50H14C8.47715 50 4 45.5228 4 40V10Z"/>
</mask>
<path d="M4 0H54H4ZM54 40C54 47.1797 48.1797 53 41 53H14C6.8203 53 1 47.1797 1 40H7C7 43.866 10.134 47 14 47H44C49.5228 47 54 43.866 54 40ZM14 53C6.8203 53 1 47.1797 1 40V13C1 5.8203 6.8203 0 14 0C10.134 0 7 4.47715 7 10V40C7 43.866 10.134 47 14 47V53ZM54 0V50V0Z" fill="#89CBF3" mask="url(#path-1-inside-1_1_10)"/>
<g style="mix-blend-mode:darken">
<path fill-rule="evenodd" clip-rule="evenodd" d="M33.8692 11.94C4.13765 5.10389 16.0303 37.765 18.0124 38.7145L23.5124 29.7145L28.0124 38.2145L30.5124 27.7145L15.5183 17.0262L41.5124 26.7145L34.5124 20.2145L33.8692 11.94Z" fill="#4DA7DD"/>
<path d="M33.8692 11.94C4.13765 5.10389 16.0303 37.765 18.0124 38.7145L23.5124 29.7145L28.0124 38.2145L30.5124 27.7145M33.8692 11.94C54.0124 5.21448 36.5124 39.2842 36.5124 38.7145C36.5124 38.2587 36.4587 26.5752 30.5124 27.7145M33.8692 11.94L34.5124 20.2145L41.5124 26.7145L15.5183 17.0262L30.5124 27.7145" stroke="#89CBF3" stroke-width="0.3"/>
</g>
</g>
<defs>
<filter id="filter0_d_1_10" x="0" y="0" width="58" height="58" filterUnits="userSpaceOnUse" color-interpolation-filters="sRGB">
<feFlood flood-opacity="0" result="BackgroundImageFix"/>
<feColorMatrix in="SourceAlpha" type="matrix" values="0 0 0 0 0 0 0 0 0 0 0 0 0 0 0 0 0 0 127 0" result="hardAlpha"/>
<feOffset dy="4"/>
<feGaussianBlur stdDeviation="2"/>
<feComposite in2="hardAlpha" operator="out"/>
<feColorMatrix type="matrix" values="0 0 0 0 0 0 0 0 0 0 0 0 0 0 0 0 0 0 0.25 0"/>
<feBlend mode="normal" in2="BackgroundImageFix" result="effect1_dropShadow_1_10"/>
<feBlend mode="normal" in="SourceGraphic" in2="effect1_dropShadow_1_10" result="shape"/>
</filter>
</defs>
</svg>
